<svg data-name="Layer 2" xmlns="http://www.w3.org/2000/svg" viewBox="0 0 24 23.443" width="24" height="23.443">
  <g data-name="Layer 1">
    <path d="M22.554 12.859c-5.541-.277-11.767 3.362-10.246 9.809.107.611.476.844 1.091.757 5.031-.622 9.162-4.55 9.98-9.55.097-.579-.24-1.008-.825-1.016m-7.057 8.446c.52-2.161 2.725-3.435 4.665-3.636-.651 1.263-3.281 3.313-4.666 3.636m5.681-5.433c-3.76.607-6.595 1.826-7.355 5.949l-.132-.017c-.917-4.731 3.924-7.423 8.041-7.374-.189.508-.342.989-.554 1.442m-13.63-1.553c-1-.685-7.648-2.761-7.28-.445.789 4.735 4.494 8.522 9.22 9.423.724.154 1.735.372 1.852-.63.112-.637.168-1.284.212-1.634-.03-3.255-1.451-5.355-4.003-6.714m-4.064 3.349c1.94.201 4.145 1.475 4.666 3.636-1.385-.324-4.015-2.373-4.666-3.636m6.472 4.137-.132.017c-.472-3.459-3.542-5.595-6.899-5.809-.16-.015-.411-.042-.457-.14-.212-.453-.365-.933-.554-1.442 4.116-.049 8.959 2.645 8.041 7.374"/>
    <path d="M12.694 15.711c1.737-2.649 5.769-3.337 6.215-6.873.078-.7.319-2.109-.774-2.004-.33.045-.542.303-.572.7.219 3.654-3.974 4.238-5.654 6.795-1.818-2.577-5.787-3.088-5.619-6.86-.096-.962-1.464-.766-1.443.19-.189 2.573 1.709 4.56 3.808 5.735 2.246 1.159 2.844 4.16 4.04 2.318ZM6.771 4.733c-.008.878 1.403.881 1.372-.01.03-.933-1.406-.915-1.372.01m10.309-.002c.021-.916-1.397-.939-1.368-.013-.033.902 1.391.89 1.368.013M3.282 10.878c-.005.87 1.304.87 1.307.016.012-.814-1.341-.911-1.307-.016m15.946-.005c-.005.849 1.316.896 1.312.027.032-.848-1.323-.878-1.312-.027"/>
    <path d="M11.925 4.917c-4.249.128-4.193 6.336.059 6.385 4.124-.052 4.065-6.407-.059-6.385m-.006 4.897c-2.212.01-2.19-3.389-.008-3.416 2.222.053 2.272 3.33.008 3.416"/>
    <path d="M24 11.003c-.052-1.296-.276-2.601-.743-3.815a10.9 10.9 0 0 0-1.871-3.165 10.8 10.8 0 0 0-2.562-2.17A12.3 12.3 0 0 0 15.756.516 13.8 13.8 0 0 0 8.999.332C7.902.574 6.832.967 5.837 1.488S3.929 2.677 3.141 3.465A10.3 10.3 0 0 0 1.15 6.254a11 11 0 0 0-.69 1.791c-.19.66-.306 1.335-.386 2.016q-.055.47-.073.942c-.019.469.426.918.897.897a.917.917 0 0 0 .897-.897q.022-.57.098-1.134l-.032.238a11 11 0 0 1 .512-2.155 9 9 0 0 1 .219-.565l-.091.214a9.7 9.7 0 0 1 1.237-2.125l-.14.182a9.7 9.7 0 0 1 1.34-1.414 10 10 0 0 1 .432-.352l-.182.14A10.7 10.7 0 0 1 7.6 2.634l-.214.091a12.2 12.2 0 0 1 3.137-.847l-.238.032a13 13 0 0 1 3.46.001l-.24-.034c.838.113 1.665.308 2.463.589a12 12 0 0 1 .672.26l-.214-.091a11 11 0 0 1 2.393 1.388l-.182-.14a10 10 0 0 1 1.759 1.751l-.14-.182a9.7 9.7 0 0 1 1.248 2.141l-.091-.214c.279.663.485 1.356.621 2.062q.062.319.105.64l-.032-.238q.077.577.1 1.159a.94.94 0 0 0 .263.634c.156.156.411.273.634.263s.472-.087.634-.263.272-.395.263-.634Z"/>
  </g>
</svg>
