<?xml version="1.0" encoding="UTF-8"?>
<svg id="Layer_2" data-name="Layer 2" xmlns="http://www.w3.org/2000/svg" viewBox="0 0 991.65 968.64">
  <g id="Layer_1-2" data-name="Layer 1">
    <g id="Logo">
      <path d="M931.89,531.33c-228.93-11.44-486.2,138.92-423.36,405.31,4.44,25.24,19.67,34.89,45.09,31.27,207.87-25.68,378.58-188.02,412.35-394.59,4-23.92-9.92-41.64-34.08-41.98Zm-291.6,348.98c21.53-89.31,112.61-141.93,192.78-150.25-26.89,52.18-135.57,136.87-192.78,150.25Zm234.73-224.47c-155.37,25.1-272.51,75.46-303.92,245.82-1.81-.24-3.62-.44-5.44-.69-37.9-195.48,162.15-306.71,332.24-304.7-7.8,21.01-14.13,40.86-22.89,59.57Z"/>
      <path d="M311.84,591.69c-41.31-28.3-316-114.1-300.8-18.38,32.61,195.63,185.7,352.13,380.94,389.36,29.9,6.37,71.69,15.37,76.51-26.04,4.62-26.34,6.95-53.07,8.75-67.51-1.26-134.51-59.94-221.28-165.4-277.43Zm-167.9,138.38c80.17,8.32,171.26,60.94,192.78,150.25-57.21-13.38-165.88-98.07-192.78-150.25Zm267.41,170.92c-1.81,.23-3.63,.44-5.44,.69-19.5-142.93-146.36-231.17-285.04-240.03-6.63-.62-17-1.75-18.88-5.79-8.75-18.71-15.09-38.56-22.89-59.57,170.08-2.04,370.18,109.27,332.25,304.7Z"/>
      <path d="M524.5,649.17c71.79-109.47,238.37-137.9,256.79-284,3.23-28.94,13.19-87.15-31.99-82.8-13.62,1.85-22.38,12.52-23.64,28.91,9.03,150.96-164.19,175.09-233.63,280.78-75.1-106.49-239.13-127.58-232.16-283.45-3.97-39.75-60.48-31.63-59.64,7.84-7.81,106.33,70.63,188.43,157.33,236.95,92.79,47.87,117.52,171.88,166.94,95.78Z"/>
      <path d="M279.78,195.56c-.31,36.27,57.95,36.41,56.7-.41,1.26-38.53-58.11-37.79-56.7,.41Z"/>
      <path d="M705.75,195.49c.85-37.84-57.71-38.78-56.53-.55-1.36,37.28,57.46,36.76,56.53,.55Z"/>
      <path d="M135.59,449.48c-.22,35.96,53.89,35.96,53.99,.65,.48-33.64-55.4-37.63-53.99-.65Z"/>
      <path d="M794.44,449.28c-.21,35.06,54.38,37.01,54.23,1.13,1.32-35.02-54.66-36.29-54.23-1.13Z"/>
      <path d="M492.72,203.16c-175.56,5.27-173.27,261.78,2.44,263.84,170.4-2.13,167.95-264.73-2.44-263.84Zm-.24,202.32c-91.41,.41-90.48-140.01-.34-141.15,91.81,2.19,93.89,137.61,.34,141.15Z"/>
      <path d="M991.63,454.65c-2.15-53.55-11.39-107.49-30.69-157.62-18.47-47.99-43.98-91.56-77.31-130.76-29.99-35.27-66.46-65.4-105.84-89.65-39.24-24.16-82.49-42.61-126.77-55.25C605.91,8.49,558.69,1.57,511.81,.22c-46.87-1.35-94.21,3.41-139.99,13.5-45.32,9.99-89.53,26.23-130.63,47.78s-78.84,49.12-111.39,81.69c-33.38,33.4-61.75,72.67-82.27,115.22-11.48,23.81-21.22,48.6-28.53,74.01-7.84,27.26-12.65,55.14-15.95,83.29-1.51,12.94-2.5,25.93-3.03,38.94-.79,19.39,17.61,37.93,37.06,37.06,20.76-.93,36.21-16.28,37.06-37.06,.64-15.68,1.96-31.32,4.03-46.87-.44,3.28-.88,6.57-1.32,9.85,4.08-30.29,10.99-60.2,21.15-89.04,2.77-7.88,5.79-15.67,9.03-23.36l-3.74,8.85c13.25-31.3,30.4-60.85,51.13-87.79l-5.79,7.5c16.44-21.28,35.01-40.86,55.36-58.44,5.81-5.02,11.76-9.86,17.83-14.56l-7.5,5.79c23.69-18.25,49.26-33.98,76.13-47.09,7.73-3.77,15.57-7.32,23.49-10.67l-8.85,3.74c32.15-13.53,65.72-23.57,99.97-30.17,9.84-1.9,19.72-3.5,29.65-4.84-3.28,.44-6.57,.88-9.85,1.32,36.93-4.93,74.34-6.04,111.49-3.27,10.53,.78,21.03,1.89,31.5,3.29l-9.85-1.32c34.63,4.68,68.8,12.73,101.77,24.33,9.36,3.29,18.62,6.88,27.76,10.74l-8.85-3.74c27.42,11.62,53.75,25.77,78.38,42.52,6.98,4.75,13.81,9.71,20.49,14.85l-7.5-5.79c21.07,16.28,40.59,34.54,58.08,54.62,5.03,5.77,9.88,11.69,14.57,17.74l-5.79-7.5c20.94,27.13,38.23,56.92,51.56,88.48-1.25-2.95-2.49-5.9-3.74-8.85,11.51,27.41,20.02,56.02,25.66,85.2,1.69,8.77,3.12,17.59,4.33,26.44-.44-3.28-.88-6.57-1.32-9.85,2.13,15.89,3.48,31.87,4.12,47.89,.39,9.74,3.87,19.21,10.85,26.2,6.43,6.43,16.97,11.27,26.2,10.85s19.52-3.58,26.2-10.85,11.25-16.32,10.85-26.2h0Z"/>
    </g>
  </g>
</svg>